
<svg version="1.0" xmlns="http://www.w3.org/2000/svg"
 width="512.000000pt" height="512.000000pt" viewBox="0 0 512.000000 512.000000"
 preserveAspectRatio="xMidYMid meet">

<g transform="translate(0.000000,512.000000) scale(0.100000,-0.100000)"
fill="#ffffff" stroke="none">
<path d="M1422 3829 c-19 -6 -53 -30 -77 -53 -69 -69 -83 -155 -40 -242 18
-37 139 -164 487 -511 l463 -463 -463 -462 c-515 -515 -520 -521 -509 -624 11
-102 85 -179 185 -191 107 -12 99 -19 620 501 l472 471 473 -471 c520 -520
512 -513 619 -501 136 16 221 156 173 284 -15 41 -86 117 -489 521 l-471 472
471 473 c403 403 474 479 489 520 48 128 -37 268 -173 284 -107 12 -99 19
-620 -501 l-472 -471 -468 467 c-353 353 -478 472 -512 487 -48 22 -104 25
-158 10z"/>
</g>
</svg>
